<?xml version="1.0" encoding="UTF-8" standalone="no"?> <svg width="64" height="64" viewBox="0 0 64 64" fill="none" xmlns="http://www.w3.org/2000/svg">
<path d="M52 23.31C52.2652 23.31 52.5196 23.2046 52.7071 23.0171C52.8946 22.8296 53 22.5752 53 22.31C53 22.0448 52.8946 21.7904 52.7071 21.6029C52.5196 21.4154 52.2652 21.31 52 21.31H48.05V20.11C48.0455 19.8818 48.0221 19.6543 47.98 19.43H51.98C52.2452 19.43 52.4996 19.3246 52.6871 19.1371C52.8746 18.9496 52.98 18.6952 52.98 18.43C52.98 18.1648 52.8746 17.9104 52.6871 17.7229C52.4996 17.5354 52.2452 17.43 51.98 17.43H47.05C46.8978 17.2495 46.7305 17.0822 46.55 16.93V12C46.55 11.7348 46.4446 11.4804 46.2571 11.2929C46.0696 11.1054 45.8152 11 45.55 11C45.2848 11 45.0304 11.1054 44.8429 11.2929C44.6554 11.4804 44.55 11.7348 44.55 12V16C44.3289 15.9585 44.1049 15.9351 43.88 15.93H42.68V12C42.68 11.7348 42.5746 11.4804 42.3871 11.2929C42.1996 11.1054 41.9452 11 41.68 11C41.4148 11 41.1604 11.1054 40.9729 11.2929C40.7854 11.4804 40.68 11.7348 40.68 12V15.95H38.8V12C38.8 11.7348 38.6946 11.4804 38.5071 11.2929C38.3196 11.1054 38.0652 11 37.8 11C37.5348 11 37.2804 11.1054 37.0929 11.2929C36.9054 11.4804 36.8 11.7348 36.8 12V15.95H34.93V12C34.93 11.7348 34.8246 11.4804 34.6371 11.2929C34.4496 11.1054 34.1952 11 33.93 11C33.6648 11 33.4104 11.1054 33.2229 11.2929C33.0354 11.4804 32.93 11.7348 32.93 12V15.95H31.05V12C31.05 11.7348 30.9446 11.4804 30.7571 11.2929C30.5696 11.1054 30.3152 11 30.05 11C29.7848 11 29.5304 11.1054 29.3429 11.2929C29.1554 11.4804 29.05 11.7348 29.05 12V15.95H27.18V12C27.18 11.7348 27.0746 11.4804 26.8871 11.2929C26.6996 11.1054 26.4452 11 26.18 11C25.9148 11 25.6604 11.1054 25.4729 11.2929C25.2854 11.4804 25.18 11.7348 25.18 12V15.95H23.3V12C23.3 11.7348 23.1946 11.4804 23.0071 11.2929C22.8196 11.1054 22.5652 11 22.3 11C22.0348 11 21.7804 11.1054 21.5929 11.2929C21.4054 11.4804 21.3 11.7348 21.3 12V15.95H20.11C19.8784 15.954 19.6476 15.9774 19.42 16.02V12C19.42 11.7348 19.3146 11.4804 19.1271 11.2929C18.9396 11.1054 18.6852 11 18.42 11C18.1548 11 17.9004 11.1054 17.7129 11.2929C17.5254 11.4804 17.42 11.7348 17.42 12V17C17.2472 17.1467 17.0867 17.3072 16.94 17.48H12C11.7348 17.48 11.4804 17.5854 11.2929 17.7729C11.1054 17.9604 11 18.2148 11 18.48C11 18.7452 11.1054 18.9996 11.2929 19.1871C11.4804 19.3746 11.7348 19.48 12 19.48H16C15.9579 19.7043 15.9345 19.9318 15.93 20.16V21.36H12C11.7348 21.36 11.4804 21.4654 11.2929 21.6529C11.1054 21.8404 11 22.0948 11 22.36C11 22.6252 11.1054 22.8796 11.2929 23.0671C11.4804 23.2546 11.7348 23.36 12 23.36H16V25.24H12C11.7348 25.24 11.4804 25.3454 11.2929 25.5329C11.1054 25.7204 11 25.9748 11 26.24C11 26.5052 11.1054 26.7596 11.2929 26.9471C11.4804 27.1346 11.7348 27.24 12 27.24H16V29.12H12C11.7348 29.12 11.4804 29.2254 11.2929 29.4129C11.1054 29.6004 11 29.8548 11 30.12C11 30.3852 11.1054 30.6396 11.2929 30.8271C11.4804 31.0146 11.7348 31.12 12 31.12H16V33H12C11.7348 33 11.4804 33.1054 11.2929 33.2929C11.1054 33.4804 11 33.7348 11 34C11 34.2652 11.1054 34.5196 11.2929 34.7071C11.4804 34.8946 11.7348 35 12 35H16V36.88H12C11.7348 36.88 11.4804 36.9854 11.2929 37.1729C11.1054 37.3604 11 37.6148 11 37.88C11 38.1452 11.1054 38.3996 11.2929 38.5871C11.4804 38.7746 11.7348 38.88 12 38.88H16V40.76H12C11.7348 40.76 11.4804 40.8654 11.2929 41.0529C11.1054 41.2404 11 41.4948 11 41.76C11 42.0252 11.1054 42.2796 11.2929 42.4671C11.4804 42.6546 11.7348 42.76 12 42.76H16V43.96C16.0045 44.1882 16.0279 44.4157 16.07 44.64H12C11.7348 44.64 11.4804 44.7454 11.2929 44.9329C11.1054 45.1204 11 45.3748 11 45.64C11 45.9052 11.1054 46.1596 11.2929 46.3471C11.4804 46.5346 11.7348 46.64 12 46.64H17C17.1467 46.8128 17.3072 46.9733 17.48 47.12V52.12C17.48 52.3852 17.5854 52.6396 17.7729 52.8271C17.9604 53.0146 18.2148 53.12 18.48 53.12C18.7452 53.12 18.9996 53.0146 19.1871 52.8271C19.3746 52.6396 19.48 52.3852 19.48 52.12V48C19.7076 48.0426 19.9384 48.066 20.17 48.07H21.3V52C21.3 52.2652 21.4054 52.5196 21.5929 52.7071C21.7804 52.8946 22.0348 53 22.3 53C22.5652 53 22.8196 52.8946 23.0071 52.7071C23.1946 52.5196 23.3 52.2652 23.3 52V48.05H25.18V52C25.18 52.2652 25.2854 52.5196 25.4729 52.7071C25.6604 52.8946 25.9148 53 26.18 53C26.4452 53 26.6996 52.8946 26.8871 52.7071C27.0746 52.5196 27.18 52.2652 27.18 52V48.05H29.06V52C29.06 52.2652 29.1654 52.5196 29.3529 52.7071C29.5404 52.8946 29.7948 53 30.06 53C30.3252 53 30.5796 52.8946 30.7671 52.7071C30.9546 52.5196 31.06 52.2652 31.06 52V48.05H32.94V52C32.94 52.2652 33.0454 52.5196 33.2329 52.7071C33.4204 52.8946 33.6748 53 33.94 53C34.2052 53 34.4596 52.8946 34.6471 52.7071C34.8346 52.5196 34.94 52.2652 34.94 52V48.05H36.8V52C36.8 52.2652 36.9054 52.5196 37.0929 52.7071C37.2804 52.8946 37.5348 53 37.8 53C38.0652 53 38.3196 52.8946 38.5071 52.7071C38.6946 52.5196 38.8 52.2652 38.8 52V48.05H40.68V52C40.68 52.2652 40.7854 52.5196 40.9729 52.7071C41.1604 52.8946 41.4148 53 41.68 53C41.9452 53 42.1996 52.8946 42.3871 52.7071C42.5746 52.5196 42.68 52.2652 42.68 52V48.05H43.89C44.1149 48.0449 44.3389 48.0215 44.56 47.98V51.98C44.56 52.2452 44.6654 52.4996 44.8529 52.6871C45.0404 52.8746 45.2948 52.98 45.56 52.98C45.8252 52.98 46.0796 52.8746 46.2671 52.6871C46.4546 52.4996 46.56 52.2452 46.56 51.98V47.06C46.7405 46.9078 46.9078 46.7405 47.06 46.56H52C52.2652 46.56 52.5196 46.4546 52.7071 46.2671C52.8946 46.0796 53 45.8252 53 45.56C53 45.2948 52.8946 45.0404 52.7071 44.8529C52.5196 44.6654 52.2652 44.56 52 44.56H48C48.0421 44.3357 48.0655 44.1082 48.07 43.88V42.68H52C52.2652 42.68 52.5196 42.5746 52.7071 42.3871C52.8946 42.1996 53 41.9452 53 41.68C53 41.4148 52.8946 41.1604 52.7071 40.9729C52.5196 40.7854 52.2652 40.68 52 40.68H48.05V38.81H52C52.2652 38.81 52.5196 38.7046 52.7071 38.5171C52.8946 38.3296 53 38.0752 53 37.81C53 37.5448 52.8946 37.2904 52.7071 37.1029C52.5196 36.9154 52.2652 36.81 52 36.81H48.05V34.94H52C52.2652 34.94 52.5196 34.8346 52.7071 34.6471C52.8946 34.4596 53 34.2052 53 33.94C53 33.6748 52.8946 33.4204 52.7071 33.2329C52.5196 33.0454 52.2652 32.94 52 32.94H48.05V31.06H52C52.2652 31.06 52.5196 30.9546 52.7071 30.7671C52.8946 30.5796 53 30.3252 53 30.06C53 29.7948 52.8946 29.5404 52.7071 29.3529C52.5196 29.1654 52.2652 29.06 52 29.06H48.05V27.19H52C52.2652 27.19 52.5196 27.0846 52.7071 26.8971C52.8946 26.7096 53 26.4552 53 26.19C53 25.9248 52.8946 25.6704 52.7071 25.4829C52.5196 25.2954 52.2652 25.19 52 25.19H48.05V23.31H52Z" fill="url(#paint0_linear)"/>
<path d="M42.3601 19.6201H21.6301C20.52 19.6201 19.6201 20.52 19.6201 21.6301V42.3601C19.6201 43.4702 20.52 44.3701 21.6301 44.3701H42.3601C43.4702 44.3701 44.3701 43.4702 44.3701 42.3601V21.6301C44.3701 20.52 43.4702 19.6201 42.3601 19.6201Z" fill="url(#paint1_linear)"/>
<defs>
<linearGradient id="paint0_linear" x1="10.99" y1="32" x2="52.99" y2="32" gradientUnits="userSpaceOnUse">
<stop stop-color="#2357FF"/>
<stop offset="0.38" stop-color="#1B6FF6"/>
<stop offset="1" stop-color="#0B9EE3"/>
</linearGradient>
<linearGradient id="paint1_linear" x1="19.6201" y1="32.0001" x2="44.3801" y2="32.0001" gradientUnits="userSpaceOnUse">
<stop stop-color="#0C90F2"/>
<stop offset="0.14" stop-color="#1092F2"/>
<stop offset="0.27" stop-color="#1C97F1"/>
<stop offset="0.4" stop-color="#2F9FF1"/>
<stop offset="0.53" stop-color="#4BABF0"/>
<stop offset="0.66" stop-color="#6EBBEE"/>
<stop offset="0.78" stop-color="#99CEED"/>
<stop offset="0.85" stop-color="#B3D9EC"/>
</linearGradient>
</defs>
</svg>
