<?xml version="1.0" encoding="UTF-8" standalone="no"?> <svg id="Layer_1" data-name="Layer 1" xmlns="http://www.w3.org/2000/svg" viewBox="0 0 512 512"><defs><style>.cls-1{fill:#ffd38d;}.cls-2{fill:#aadda2;}.cls-3{fill:#6d4135;}</style></defs><title>oval-padlock-unlocked-filled</title><circle class="cls-1" cx="256" cy="320" r="170.67"/><circle class="cls-2" cx="256" cy="298.67" r="42.67"/><path class="cls-3" d="M256,128a191.12,191.12,0,0,0-64,11V106.67a64,64,0,0,1,126-16A21.33,21.33,0,0,0,359.32,80a106.69,106.69,0,0,0-210,26.67v53.77A192,192,0,0,0,64,320c0,105.86,86.13,192,192,192s192-86.14,192-192S361.87,128,256,128Zm0,341.33c-82.34,0-149.33-67-149.33-149.33s67-149.33,149.33-149.33,149.33,67,149.33,149.33S338.34,469.33,256,469.33Z"/><path class="cls-3" d="M256,234.67A64,64,0,0,0,234.67,359v46.34a21.33,21.33,0,0,0,42.67,0V359A64,64,0,0,0,256,234.67ZM256,320a21.33,21.33,0,1,1,21.33-21.33A21.36,21.36,0,0,1,256,320Z"/></svg>